<svg

            width="105"
            height="100"
            viewBox="0 0 255 220"
            fill="none"
            xmlns="http://www.w3.org/2000/svg"
    >
        <path
                d="M19.9653 56.4356L11.9454 209.459C11.6814 214.5 15.5533 218.587 20.5953 218.587H236.355C241.396 218.587 245.697 214.5 245.961 209.459L253.285 69.7146C253.549 64.6736 249.677 60.5866 244.635 60.5866H109.473C105.39 60.5866 101.946 57.8756 101.039 53.9466C100.132 50.0186 96.6884 47.3066 92.6054 47.3066H29.5723C24.5303 47.3086 20.2293 51.3946 19.9653 56.4356Z"
                fill="#3661E3"
        />
        <path
                d="M109.474 60.5905H102.223C98.1436 60.5905 94.6956 57.8735 93.7916 53.9515C93.3356 51.9865 92.2436 50.3265 90.7666 49.1555C89.2726 47.9935 87.3956 47.3125 85.3516 47.3125H92.6016C94.6456 47.3125 96.5236 47.9935 98.0166 49.1555C99.4926 50.3255 100.586 51.9855 101.042 53.9515C101.947 57.8735 105.395 60.5905 109.474 60.5905Z"
                fill="white"
        />
        <path
                d="M253.288 69.7188L245.964 209.461C245.7 214.501 241.397 218.59 236.357 218.59H229.106C234.146 218.59 238.449 214.502 238.713 209.461L246.037 69.7188C246.301 64.6788 242.427 60.5898 237.387 60.5898H244.638C249.679 60.5908 253.552 64.6788 253.288 69.7188Z"
                fill="white"
        />
        <path
                d="M19.9653 56.4356L11.9454 209.459C11.6814 214.5 15.5533 218.587 20.5953 218.587H236.355C241.396 218.587 245.697 214.5 245.961 209.459L253.285 69.7146C253.549 64.6736 249.677 60.5866 244.635 60.5866H109.473C105.39 60.5866 101.946 57.8756 101.039 53.9466C100.132 50.0186 96.6884 47.3066 92.6054 47.3066H29.5723C24.5303 47.3086 20.2293 51.3946 19.9653 56.4356Z"
                stroke="#3661E3"
                stroke-width="2.5"
                stroke-miterlimit="10"
                stroke-linecap="round"
                stroke-linejoin="round"
        />
        <path
                d="M85.9501 60.1907H31.4621C29.6291 60.1907 28.2202 58.7047 28.3162 56.8717C28.4122 55.0387 29.9761 53.5527 31.8091 53.5527H86.2972C88.1302 53.5527 89.5392 55.0387 89.4432 56.8717C89.3472 58.7037 87.7831 60.1907 85.9501 60.1907Z"
                fill="white"
                stroke="#3661E3"
                stroke-width="2.5"
                stroke-miterlimit="10"
                stroke-linecap="round"
                stroke-linejoin="round"
        />
        <path
                d="M121.84 1.99906L29.2734 78.6309L125.498 194.864L218.064 118.232L121.84 1.99906Z"
                fill="white"
                stroke="#3661E3"
                stroke-width="2.5"
                stroke-miterlimit="10"
                stroke-linecap="round"
                stroke-linejoin="round"
        />
        <path
                d="M90.3174 132.966L163.79 72.1465"
                stroke="#3661E3"
                stroke-width="2.5"
                stroke-miterlimit="10"
                stroke-linecap="round"
                stroke-linejoin="round"
        />
        <path
                d="M95.4824 139.206L168.955 78.3867"
                stroke="#3661E3"
                stroke-width="2.5"
                stroke-miterlimit="10"
                stroke-linecap="round"
                stroke-linejoin="round"
        />
        <path
                d="M100.647 145.447L153.955 101.32"
                stroke="#3661E3"
                stroke-width="2.5"
                stroke-miterlimit="10"
                stroke-linecap="round"
                stroke-linejoin="round"
        />
        <path
                d="M110.979 157.927L184.453 97.1074"
                stroke="#3661E3"
                stroke-width="2.5"
                stroke-miterlimit="10"
                stroke-linecap="round"
                stroke-linejoin="round"
        />
        <path
                d="M116.144 164.168L189.618 103.348"
                stroke="#3661E3"
                stroke-width="2.5"
                stroke-miterlimit="10"
                stroke-linecap="round"
                stroke-linejoin="round"
        />
        <path
                d="M121.31 170.408L194.783 109.588"
                stroke="#3661E3"
                stroke-width="2.5"
                stroke-miterlimit="10"
                stroke-linecap="round"
                stroke-linejoin="round"
        />
        <path
                d="M126.475 176.647L179.784 132.52"
                stroke="#3661E3"
                stroke-width="2.5"
                stroke-miterlimit="10"
                stroke-linecap="round"
                stroke-linejoin="round"
        />
        <path
                d="M48.3838 82.3083L121.558 21.7363"
                stroke="#3661E3"
                stroke-width="2.5"
                stroke-miterlimit="10"
                stroke-linecap="round"
                stroke-linejoin="round"
        />
        <path
                d="M53.5488 88.5475L126.723 27.9766"
                stroke="#3661E3"
                stroke-width="2.5"
                stroke-miterlimit="10"
                stroke-linecap="round"
                stroke-linejoin="round"
        />
        <path
                d="M58.7148 94.7878L131.889 34.2168"
                stroke="#3661E3"
                stroke-width="2.5"
                stroke-miterlimit="10"
                stroke-linecap="round"
                stroke-linejoin="round"
        />
        <path
                d="M63.8799 101.028L137.054 40.457"
                stroke="#3661E3"
                stroke-width="2.5"
                stroke-miterlimit="10"
                stroke-linecap="round"
                stroke-linejoin="round"
        />
        <path
                d="M76.041 115.718L149.514 54.8984"
                stroke="#3661E3"
                stroke-width="2.5"
                stroke-miterlimit="10"
                stroke-linecap="round"
                stroke-linejoin="round"
        />
        <path
                d="M81.2061 121.959L134.514 77.832"
                stroke="#3661E3"
                stroke-width="2.5"
                stroke-miterlimit="10"
                stroke-linecap="round"
                stroke-linejoin="round"
        />
        <path
                d="M2.00716 81.3776L7.04018 209.818C7.23218 214.716 11.2592 218.589 16.1612 218.589H235.375C240.557 218.589 244.699 214.281 244.496 209.103L239.456 80.6626C239.264 75.7646 235.237 71.8926 230.335 71.8926H11.1282C5.94616 71.8926 1.80416 76.2006 2.00716 81.3776Z"
                fill="#3661E3"
        />
        <path
                d="M244.497 209.099C244.697 214.279 240.557 218.589 235.377 218.589H227.727C232.907 218.589 237.046 214.279 236.846 209.099L231.807 80.6587C231.617 75.7687 227.587 71.8887 222.687 71.8887H230.337C235.237 71.8887 239.267 75.7687 239.457 80.6587L244.497 209.099Z"
                fill="white"
        />
        <path
                d="M2.00716 81.3776L7.04018 209.818C7.23218 214.716 11.2592 218.589 16.1612 218.589H235.375C240.557 218.589 244.699 214.281 244.496 209.103L239.456 80.6626C239.264 75.7646 235.237 71.8926 230.335 71.8926H11.1282C5.94616 71.8926 1.80416 76.2006 2.00716 81.3776Z"
                stroke="#3661E3"
                stroke-width="2.5"
                stroke-miterlimit="10"
                stroke-linecap="round"
                stroke-linejoin="round"
        />
        <path
                d="M115.271 119.197C118.032 119.197 120.271 121.435 120.271 124.197V169.762C120.271 172.524 118.032 174.762 115.271 174.762C112.51 174.762 110.271 172.524 110.271 169.762V124.197C110.271 121.435 112.51 119.197 115.271 119.197Z"
                fill="white"
        />
        <path
                d="M98.4213 149.223C99.6333 149.223 100.848 149.661 101.809 150.547L115.27 162.962L128.731 150.547C130.761 148.677 133.924 148.803 135.796 150.833C137.668 152.862 137.541 156.026 135.51 157.898L118.659 173.439C116.745 175.205 113.794 175.205 111.88 173.439L95.0293 157.898C92.9993 156.026 92.8713 152.862 94.7433 150.833C95.7303 149.765 97.0743 149.223 98.4213 149.223Z"
                fill="white"
        />
    </svg>
